<svg width="20" height="18" viewBox="0 0 20 18" fill="none" xmlns="http://www.w3.org/2000/svg">
<path fill-rule="evenodd" clip-rule="evenodd" d="M9.99999 0.000488281C10.7669 0.000488281 11.5242 0.171101 12.217 0.499963H12.218L18.908 3.63696C20.364 4.31896 20.364 6.68096 18.908 7.36296L12.217 10.5C11.5242 10.8288 10.7669 10.9994 9.99999 10.9994C9.23309 10.9994 8.4758 10.8288 7.78299 10.5L1.74999 7.67196V11.5C1.74999 11.6989 1.67098 11.8896 1.53032 12.0303C1.38967 12.1709 1.19891 12.25 0.999993 12.25C0.80108 12.25 0.610315 12.1709 0.469663 12.0303C0.32901 11.8896 0.249993 11.6989 0.249993 11.5V6.54696C-0.265007 5.56396 0.0159929 4.14096 1.09199 3.63696L7.78299 0.499963C8.4758 0.171101 9.23309 0.000488281 9.99999 0.000488281ZM3.00006 13.625V9.91504L7.14606 11.859C8.03821 12.2814 9.01299 12.5005 10.0001 12.5005C10.9871 12.5005 11.9619 12.2814 12.8541 11.859L17.0001 9.91504V13.626C17.0001 14.633 16.4971 15.577 15.6151 16.066C14.1461 16.879 11.7961 18 10.0001 18C8.20406 18 5.85406 16.88 4.38506 16.065C3.50306 15.577 3.00006 14.633 3.00006 13.625Z" fill="url(#paint0_linear_20_648)"/>
<defs>
<linearGradient id="paint0_linear_20_648" x1="10" y1="9.00026" x2="10" y2="21.209" gradientUnits="userSpaceOnUse">
<stop stop-color="white"/>
<stop offset="1" stop-color="white" stop-opacity="0"/>
</linearGradient>
</defs>
</svg>
